<?xml version="1.0" encoding="utf-8"?>
<!-- Generator: Adobe Illustrator 24.1.2, SVG Export Plug-In . SVG Version: 6.00 Build 0)  -->
<svg version="1.1" id="Слой_1" xmlns="http://www.w3.org/2000/svg" xmlns:xlink="http://www.w3.org/1999/xlink" x="0px" y="0px"
	 viewBox="0 0 151.79 151.71" style="enable-background:new 0 0 151.79 151.71;" xml:space="preserve">
<style type="text/css">
	.st0{fill-rule:evenodd;clip-rule:evenodd;fill:#5DB672;}
	.st1{fill-rule:evenodd;clip-rule:evenodd;fill:#FFFFFF;}
	.st2{fill:#FFFFFF;}
</style>
<g>
	<path class="st0" d="M45.73,0.85L45.73,0.85c8.3,0,16.09,2.24,22.82,6.15l-0.17,0.16c-0.25,0.24-0.51,0.49-0.76,0.74L67.43,8.1
		c-0.25,0.25-0.49,0.5-0.73,0.75l-0.17,0.18c-0.24,0.25-0.47,0.5-0.71,0.76l-0.18,0.2c-0.23,0.26-0.47,0.52-0.7,0.78l-0.17,0.2
		c-0.23,0.27-0.46,0.53-0.68,0.81l-0.16,0.19c-0.22,0.27-0.45,0.55-0.67,0.83L63.1,13c-0.22,0.27-0.43,0.55-0.64,0.83l-0.15,0.2
		c-0.21,0.28-0.42,0.57-0.63,0.86l-0.14,0.2c-0.21,0.29-0.41,0.59-0.61,0.88l-0.13,0.2c-4.56-2.22-9.67-3.47-15.07-3.47
		c-9.52,0-18.17,3.89-24.44,10.16c-6.27,6.27-10.16,14.92-10.16,24.44v47.81H0.07V46.51C0.07,21.4,20.62,0.85,45.73,0.85L45.73,0.85
		z M51.33,95.11V47.3c0-1.54-0.63-2.93-1.65-3.95c-1.02-1.02-2.42-1.65-3.95-1.65c-1.54,0-2.93,0.63-3.95,1.65
		c-1.02,1.02-1.65,2.42-1.65,3.95v47.81H51.33L51.33,95.11z M31.11,95.11V47.3c0-4.02,1.64-7.68,4.29-10.32
		c2.65-2.65,6.3-4.29,10.32-4.29c2.58,0,5.01,0.68,7.12,1.86l0-0.01c0.05-0.21,0.1-0.42,0.15-0.63c0.05-0.23,0.11-0.46,0.17-0.69
		c0.05-0.2,0.1-0.41,0.16-0.61c0.06-0.23,0.13-0.47,0.19-0.7c0.05-0.19,0.11-0.37,0.16-0.56c0.08-0.26,0.15-0.52,0.23-0.78
		c0.05-0.16,0.1-0.32,0.15-0.48c0.09-0.28,0.18-0.55,0.27-0.83c0.04-0.13,0.09-0.27,0.14-0.4c0.1-0.3,0.21-0.6,0.32-0.91
		c0.04-0.11,0.08-0.21,0.12-0.32c0.12-0.32,0.24-0.64,0.37-0.96l0.1-0.26c0.13-0.34,0.27-0.67,0.41-1.01l0.08-0.19
		c0.15-0.35,0.31-0.71,0.46-1.06l0.06-0.13l0,0c-3.25-1.5-6.86-2.34-10.65-2.34c-7.03,0-13.43,2.88-18.07,7.52
		c-4.64,4.64-7.52,11.04-7.52,18.07v47.81H31.11L31.11,95.11z"/>
	<path class="st1" d="M106.03,0.85L106.03,0.85c25.11,0,45.65,20.54,45.65,45.65v48.61h-11.05V47.3c0-9.52-3.89-18.17-10.16-24.44
		c-6.27-6.27-14.92-10.16-24.44-10.16c-9.52,0-18.17,3.89-24.44,10.16S71.43,37.78,71.43,47.3v47.81H60.38V46.51
		C60.38,21.4,80.92,0.85,106.03,0.85L106.03,0.85z M111.63,95.11V47.3c0-1.54-0.63-2.93-1.65-3.95c-1.02-1.02-2.42-1.65-3.95-1.65
		c-1.54,0-2.93,0.63-3.95,1.65c-1.02,1.02-1.65,2.42-1.65,3.95v47.81H111.63L111.63,95.11z M91.42,95.11V47.3
		c0-4.02,1.64-7.68,4.29-10.32c2.65-2.65,6.3-4.29,10.32-4.29c4.02,0,7.68,1.64,10.33,4.29c2.65,2.65,4.29,6.3,4.29,10.32v47.81
		h10.97V47.3c0-7.03-2.88-13.43-7.52-18.07c-4.64-4.64-11.04-7.52-18.07-7.52c-7.03,0-13.43,2.88-18.07,7.52
		c-4.64,4.64-7.52,11.04-7.52,18.07v47.81H91.42L91.42,95.11z"/>
	<path class="st2" d="M10.23,151.72v-15.08h4.86l9.5,15.08h11.45l-12.85-20.06l12.29-19.05H24.03l-8.88,14.81h-4.92v-14.81H-0.1
		v39.11H10.23L10.23,151.72z M34.7,132.17c0,10.89,6.98,20.39,20.95,20.39c13.97,0,20.95-9.5,20.95-20.39
		c0-10.89-6.98-20.39-20.95-20.39C41.69,111.77,34.7,121.27,34.7,132.17L34.7,132.17z M65.99,132.17c0,6.26-3.58,10.89-10.34,10.89
		c-6.76,0-10.34-4.64-10.34-10.89c0-6.26,3.58-10.89,10.34-10.89C62.41,121.27,65.99,125.91,65.99,132.17L65.99,132.17z
		 M82.58,112.61v39.11h10.34v-12.29h5.14c9.67,0,17.04-3.13,17.04-13.41c0-10.28-7.38-13.41-17.04-13.41H82.58L82.58,112.61z
		 M104.48,126.02c0,3.52-2.79,4.47-5.92,4.47h-5.64v-8.94h5.64C101.69,121.55,104.48,122.5,104.48,126.02L104.48,126.02z
		 M119.28,112.61v9.22h11.06v29.89h10.34v-29.89h11.01v-9.22H119.28L119.28,112.61z"/>
</g>
</svg>
