<?xml version="1.0" encoding="utf-8"?>
<!-- Generator: Adobe Illustrator 24.1.2, SVG Export Plug-In . SVG Version: 6.00 Build 0)  -->
<svg version="1.1" id="Слой_1" xmlns="http://www.w3.org/2000/svg" xmlns:xlink="http://www.w3.org/1999/xlink" x="0px" y="0px"
	 viewBox="0 0 31.28 30.7" style="enable-background:new 0 0 31.28 30.7;" xml:space="preserve">
<style type="text/css">
	.st0{fill:none;stroke:#FFFFFF;stroke-width:0.9921;stroke-linecap:round;stroke-linejoin:round;stroke-miterlimit:10;}
</style>
<g>
	<path class="st0" d="M28.97,23.46l-4.66-4.66c-0.65-0.65-1.7-0.65-2.35,0l-2.34,2.34c-0.59,0.59-1.51,0.7-2.21,0.25
		c-3.49-2.22-6.43-5.14-8.62-8.61c-0.44-0.7-0.32-1.61,0.26-2.19l2.35-2.35c0.65-0.65,0.65-1.7,0-2.35L6.74,1.23
		c-0.65-0.65-1.7-0.65-2.35,0L1.63,3.99C1.01,4.61,0.8,5.53,1.1,6.35C4.98,16.9,13.3,25.22,23.85,29.09
		c0.82,0.3,1.74,0.09,2.35-0.52l2.76-2.76C29.62,25.16,29.62,24.11,28.97,23.46L28.97,23.46z"/>
</g>
</svg>
